<svg xmlns="http://www.w3.org/2000/svg" version="1/1" id="Layer_4" xmlns:xlink="http://www.w3.org/1999/xlink" viewBox="0 0 899.64 256.81" xml:space="preserve" width="900px" height="257px">

<g>
    <g>
        <path 
d="M73.17,154.23V99.82H39.71V90.39h78.08v9.43H85.24v54.41Z" fill="#ffd05a"/>
    </g>
</g>
<g>
    <g>
        <path
d="M125.86,154.23V90.39h65.66v9.43h-53.6v16H188.8v9.43H137.92V144.8h53.6v9.43Z" fill="#ffd05a"/>
    </g>
</g>

<g>
    <g>
        <path 
d="M262.43,154.23l-15-28.47H213.82v28.47H201.76V90.39H256a32.58,32.58,0,0,1,9.25,1.14,16.82,16.82,0,0,1,6.21,3.17,12.06,12.06,0,0,1,3.5,4.85,17.35,17.35,0,0,1,1.08,6.26v4.53a15,15,0,0,1-3.63,10.3q-3.61,4.13-12.15,4.94l15.06,28.65ZM264,105.72q0-5.89-8-5.9H213.82v16.51H256q8,0,8-5.9Z" fill="#ffd05a"/>
    </g>
</g>

<g>
    <g>
        <path 
d="M346.4,154.23l-15-28.47H297.8v28.47H285.74V90.39H340a32.58,32.58,0,0,1,9.25,1.14,16.94,16.94,0,0,1,6.22,3.17,12,12,0,0,1,3.49,4.85,17.35,17.35,0,0,1,1.09,6.26v4.53a15.07,15.07,0,0,1-3.63,10.3q-3.63,4.13-12.15,4.94l15,28.65Zm1.54-48.51q0-5.89-8-5.9H297.8v16.51H340q8,0,8-5.9Z" fill="#ffd05a"/>
    </g>
</g>

<g>
    <g>
        <path 
d="M443.61,154.23,410.7,102.82l-33.47,51.41H363.81l42.44-63.84h8.8l42.17,63.84Z" fill="#ffd05a"/>
    </g>
</g>

<g>
    <g>
        <path 
d="M478.8,154.23a32.61,32.61,0,0,1-9.25-1.13,16.82,16.82,0,0,1-6.21-3.17,11.82,11.82,0,0,1-3.49-4.86,17,17,0,0,1-1.09-6.25v-33a17.14,17.14,0,0,1,1.09-6.26,11.85,11.85,0,0,1,3.49-4.85,16.82,16.82,0,0,1,6.21-3.17,32.58,32.58,0,0,1,9.25-1.14h51.42v9.43H478.8q-8,0-8,5.9v33.19q0,5.9,8,5.89h51.42v9.43Z" fill="#ffd05a"/>
    </g>
</g>
<g>
    <g>
        <path 
d="M540.37,154.23V90.39h12.15V144.8H604.3v9.43Z" fill="#ffd05a"/>
    </g>
</g>

<g>
    <g>
        <path 
d="M612.74,154.23V90.39h65.65v9.43H624.8v16h50.87v9.43H624.8V144.8h53.59v9.43Z" fill="#ffd05a"/>
    </g>
</g>

<g>
    <g>
        <path 
d="M762.55,154.23l-32.92-51.41-33.46,51.41H682.74l42.44-63.84H734l42.17,63.84Z" fill="#ffd05a"/>
    </g>
</g>

<g>
    <g>
        <path 
d="M842.71,154.23l-15-28.47H794.1v28.47H782V90.39h54.23a32.58,32.58,0,0,1,9.25,1.14,16.82,16.82,0,0,1,6.21,3.17,11.85,11.85,0,0,1,3.49,4.85,17.14,17.14,0,0,1,1.09,6.26v4.53a15.06,15.06,0,0,1-3.62,10.3q-3.63,4.13-12.16,4.94l15.06,28.65Zm1.54-48.51q0-5.89-8-5.9H794.1v16.51h42.17q8,0,8-5.9Z" fill="#ffd05a"/>
    </g>
</g>
</svg>
